<?xml version="1.0" encoding="UTF-8"?>
<svg id="Layer_1" data-name="Layer 1" xmlns="http://www.w3.org/2000/svg" viewBox="0 0 600 345.77">
  <defs>
    <style>
      .cls-1 {
        fill: #0057bc;
      }
    </style>
  </defs>
  <path class="cls-1" d="M261.71,173.96c-14.14,0-30.57-7.95-31.58-30.15h31.84c-9.28-3.11-19.9-5.77-31.52-7.86,2.4-18.97,16.89-27.55,31.28-27.55,9.51,0,31.64,3.24,31.64,33.23-.01,23.84-16.35,32.33-31.65,32.33M314.05,141.61c0-29.9-20.54-49.22-52.34-49.22-22.99,0-47.28,14.16-51.65,40.59-6.38-.72-12.97-1.28-19.73-1.68v-36.69h-20.52v36.06c-.73,0-1.48-.01-2.21-.01-14.87,0-29.16.82-42.53,2.34v-38.38h-20.52v41.36c-11.55,2.09-22.1,4.73-31.32,7.83h31.32v45.06h20.52v-45.06h44.74v45.06h20.52v-45.06h19.09c1.08,27.55,22.27,46.6,52.3,46.6,31.78-.01,52.32-19.16,52.32-48.79"/>
  <path class="cls-1" d="M430.34,147.05c.89-2.17,10.5-25.43,11.85-28.71,1.47,3.41,11.32,26.38,12.33,28.71h-24.18ZM495.43,188.86l-44.46-94.26h-17.92l-41.72,94.26h21.74s10.19-24.65,10.65-25.79h37.68c.47,1.1,11.08,25.79,11.08,25.79h22.96Z"/>
  <path class="cls-1" d="M349.61,188.86h20.63v-39c.39-.52,41-55.27,41-55.27h-23.92s-25.77,37.61-27.23,39.71c-1.45-2.11-27.23-39.71-27.23-39.71h-23.94s40.29,54.29,40.66,54.8v39.47h.01Z"/>
  <g>
    <path class="cls-1" d="M131.54,251.06h-9.66l-17.31-40.62h11.05l11.05,26.93,11.12-26.93h11.05l-17.3,40.62Z"/>
    <path class="cls-1" d="M152.19,251.06v-40.62h10.02v40.62h-10.02Z"/>
    <path class="cls-1" d="M202.38,221.28l-9.83,2c-.73-3.82-3.89-5.71-7.1-5.71s-5.46,1.83-5.46,4.12c0,1.64.73,2.85,3.27,3.4l8.45,1.88c7.05,1.58,11.18,5.39,11.18,11.83,0,8.68-7.72,13.16-16.77,13.16s-16.71-4.37-17.8-12.31l10.32-2c1.03,4.18,3.95,6.01,8.02,6.01,3.76,0,6.02-1.7,6.02-4.18,0-1.83-.84-2.97-3.76-3.58l-8.5-1.81c-5.83-1.34-10.93-4.37-10.93-11.76,0-7.88,6.56-12.8,16.1-12.8,8.85,0,15.28,4.37,16.81,11.76Z"/>
    <path class="cls-1" d="M209.13,251.06v-40.62h10.02v40.62h-10.02Z"/>
    <path class="cls-1" d="M268.16,230.81c0,11.83-9.53,21.16-21.68,21.16s-21.68-9.33-21.68-21.16,9.53-21.29,21.68-21.29,21.68,9.4,21.68,21.29ZM258.14,230.81c0-6.98-5.05-12.13-11.66-12.13s-11.66,5.15-11.66,12.13,5.05,12,11.66,12,11.66-5.09,11.66-12Z"/>
    <path class="cls-1" d="M312.7,251.06h-8.26l-20.6-23.53v23.53h-10.02v-40.62h8.32l20.6,24.26v-24.26h9.96v40.62Z"/>
    <path class="cls-1" d="M375.26,235.83c-1.89,10.19-10.08,16.12-20.52,16.12-12.09,0-21.63-9.28-21.63-21.22s9.53-21.22,21.63-21.22c10.02,0,18.52,5.94,20.47,15.58l-9.83,2.31c-1.27-5.88-5.4-8.73-10.63-8.73-6.43,0-11.61,5.15-11.61,12.07s5.16,12.13,11.61,12.13c5.16,0,9.29-2.91,10.69-8.98l9.83,1.93Z"/>
    <path class="cls-1" d="M408.55,251.06l-2.86-7.39h-17.12l-2.86,7.39h-10.75l17.01-40.62h10.26l17.01,40.62h-10.69ZM397.13,221.71l-5.16,13.34h10.39l-5.23-13.34Z"/>
    <path class="cls-1" d="M447.38,251.06l-12.26-13.94h-2.92v13.94h-10.02v-40.62h20.6c8.81,0,14.64,5.34,14.64,13.28,0,6.66-4.13,11.46-10.69,12.91l12.75,14.43h-12.09ZM441.66,228.74c3.59,0,5.89-1.94,5.89-4.91s-2.3-4.85-5.89-4.85h-9.48v9.76h9.48Z"/>
    <path class="cls-1" d="M495.42,251.06h-31.7v-40.62h31.53v8.6h-21.5v7.63h19.74v8.12h-19.74v7.63h21.68v8.63h-.01Z"/>
  </g>
</svg>